<svg width="400" height="600" xmlns="http://www.w3.org/2000/svg">
  <defs>
    <linearGradient id="dress3Gradient" x1="0%" y1="0%" x2="100%" y2="100%">
      <stop offset="0%" style="stop-color:#1a1a1a;stop-opacity:1" />
      <stop offset="100%" style="stop-color:#2d2d2d;stop-opacity:1" />
    </linearGradient>
    <linearGradient id="dressShape3" x1="0%" y1="0%" x2="100%" y2="100%">
      <stop offset="0%" style="stop-color:#f093fb;stop-opacity:0.9" />
      <stop offset="100%" style="stop-color:#f5576c;stop-opacity:0.9" />
    </linearGradient>
  </defs>
  <rect width="400" height="600" fill="url(#dress3Gradient)"/>

  <!-- Dress silhouette -->
  <path d="M160 110 Q200 85 240 110 L235 190 Q200 170 165 190 Z" fill="url(#dressShape3)" opacity="0.8"/>
  <path d="M165 190 Q200 210 235 190 L225 340 Q200 320 175 340 Z" fill="url(#dressShape3)" opacity="0.7"/>
  <path d="M175 340 Q200 365 225 340 L215 470 Q200 450 185 470 Z" fill="url(#dressShape3)" opacity="0.6"/>

  <!-- Fashion accents -->
  <ellipse cx="200" cy="140" rx="8" ry="4" fill="white" opacity="0.4"/>
  <path d="M185 250 Q200 240 215 250" stroke="white" stroke-width="1" fill="none" opacity="0.5"/>
  <path d="M185 280 Q200 270 215 280" stroke="white" stroke-width="1" fill="none" opacity="0.5"/>

  <text x="200" y="520" font-family="Playfair Display, serif" font-size="18" fill="white" text-anchor="middle" font-weight="600">Rose Mystique</text>
  <text x="200" y="545" font-family="Inter, sans-serif" font-size="14" fill="rgba(255,255,255,0.7)" text-anchor="middle">Party Dress</text>
</svg>
