<svg width="400" height="600" xmlns="http://www.w3.org/2000/svg">
  <defs>
    <linearGradient id="dress2Gradient" x1="0%" y1="0%" x2="100%" y2="100%">
      <stop offset="0%" style="stop-color:#1a1a1a;stop-opacity:1" />
      <stop offset="100%" style="stop-color:#2d2d2d;stop-opacity:1" />
    </linearGradient>
    <linearGradient id="dressShape2" x1="0%" y1="0%" x2="100%" y2="100%">
      <stop offset="0%" style="stop-color:#4ecdc4;stop-opacity:0.9" />
      <stop offset="100%" style="stop-color:#44a08d;stop-opacity:0.9" />
    </linearGradient>
  </defs>
  <rect width="400" height="600" fill="url(#dress2Gradient)"/>

  <!-- Dress silhouette -->
  <path d="M140 120 Q200 90 260 120 L250 180 Q200 160 150 180 Z" fill="url(#dressShape2)" opacity="0.8"/>
  <path d="M150 180 Q200 200 250 180 L240 320 Q200 300 160 320 Z" fill="url(#dressShape2)" opacity="0.7"/>
  <path d="M160 320 Q200 340 240 320 L235 450 Q200 430 165 450 Z" fill="url(#dressShape2)" opacity="0.6"/>

  <!-- Fashion details -->
  <rect x="190" y="200" width="20" height="2" fill="white" opacity="0.5"/>
  <rect x="190" y="220" width="20" height="2" fill="white" opacity="0.5"/>
  <rect x="190" y="240" width="20" height="2" fill="white" opacity="0.5"/>

  <text x="200" y="520" font-family="Playfair Display, serif" font-size="18" fill="white" text-anchor="middle" font-weight="600">Ocean Breeze</text>
  <text x="200" y="545" font-family="Inter, sans-serif" font-size="14" fill="rgba(255,255,255,0.7)" text-anchor="middle">Cocktail Dress</text>
</svg>
